<?xml version="1.0" encoding="iso-8859-1"?>
<!-- Generator: Adobe Illustrator 19.0.0, SVG Export Plug-In . SVG Version: 6.00 Build 0)  -->
<svg version="1.1" id="Capa_1" xmlns="http://www.w3.org/2000/svg" xmlns:xlink="http://www.w3.org/1999/xlink" x="0px" y="0px"
	 viewBox="0 0 512 512" style="enable-background:new 0 0 512 512;" xml:space="preserve">
<path style="fill:#FFC363;" d="M86.421,202.392v-78.725h3.803c27.499,0,49.792,22.293,49.792,49.792l0,0"/>
<path style="fill:#FFFFFF;" d="M300,165.938H188c-81.738,0-148,66.262-148,148l0,0c0,81.738,66.262,148,148,148h112
	c81.738,0,148-66.262,148-148l0,0C448,232.199,381.738,165.938,300,165.938z"/>
<g>
	<path style="fill:#FFAA24;" d="M300,165.938H188c-68.01,0-125.297,45.876-142.625,108.368v79.228
		c9.814,35.423,32.454,65.515,62.625,84.937V486c0,8.837,7.163,16,16,16h48c8.837,0,16-7.163,16-16v-19.698
		c0-2.411,1.954-4.365,4.365-4.365h103.271c2.411,0,4.365,1.954,4.365,4.365V486c0,8.837,7.163,16,16,16h48c8.837,0,16-7.163,16-16
		v-47.53c40.906-26.333,68-72.268,68-124.533l0,0C448,232.199,381.738,165.938,300,165.938z"/>
	<path style="fill:#FFAA24;" d="M55.375,353.938H22.969c-7.162,0-12.969-5.806-12.969-12.969v-54.063
		c0-7.162,5.806-12.969,12.969-12.969h32.406V353.938z"/>
</g>
<path style="fill:#FFFFFF;" d="M366.195,10L366.195,10C291.192,10,230.39,70.802,230.39,145.805v0.39
	c0,42.1,19.159,79.724,49.232,104.634v45.209l35.86-23.833c15.67,6.312,32.783,9.794,50.713,9.794l0,0
	C441.198,282,502,221.198,502,146.195v-0.39C502,70.802,441.198,10,366.195,10z"/>
<circle style="fill:#FFC365;" cx="366.19" cy="146" r="93.96"/>
<path d="M105.26,248.93c-1.86,1.86-2.93,4.44-2.93,7.07s1.069,5.21,2.93,7.069c1.86,1.86,4.44,2.931,7.07,2.931
	s5.21-1.07,7.069-2.931c1.87-1.859,2.931-4.439,2.931-7.069s-1.061-5.21-2.931-7.07c-1.859-1.86-4.43-2.93-7.069-2.93
	C109.7,246,107.12,247.069,105.26,248.93z"/>
<path d="M480.682,275.873c-7.978,0-15.478,3.106-21.118,8.747c-3.905,3.905-3.905,10.237,0,14.143
	c3.906,3.904,10.236,3.904,14.143,0c3.846-3.845,10.104-3.847,13.95,0c5.782,5.782,5.782,15.19,0,20.973
	c-8.203,8.203-21.549,8.203-29.752,0c-0.006-0.006-0.013-0.011-0.02-0.018c0.069-1.921,0.115-3.847,0.115-5.78
	c0-16.695-2.592-33.086-7.693-48.802C487.611,238.66,512,195.125,512,146c0-23.392-5.368-45.742-15.955-66.429
	c-2.518-4.917-8.545-6.861-13.458-4.347c-4.917,2.517-6.862,8.542-4.347,13.458C487.371,106.522,492,125.807,492,146
	c0,69.477-56.523,126-126,126c-16.196,0-31.97-3.033-46.885-9.017c-3.054-1.225-6.517-0.868-9.258,0.953l-20.235,13.448v-26.336
	c0-2.988-1.337-5.821-3.645-7.721C256.758,219.274,240,183.8,240,146c0-69.477,56.523-126,126-126
	c16.77,0,33.051,3.238,48.392,9.625c4.948,2.06,9.817,4.466,14.473,7.151c4.783,2.759,10.899,1.118,13.659-3.665
	c2.76-4.784,1.119-10.899-3.665-13.659c-5.396-3.113-11.043-5.903-16.78-8.291C404.289,3.755,385.422,0,366,0
	c-80.505,0-146,65.495-146,146c0,42.203,18.024,81.901,49.622,109.669v40.369c0,3.686,2.027,7.072,5.275,8.813
	c1.479,0.793,3.104,1.187,4.724,1.187c1.936,0,3.865-0.562,5.536-1.672l31.489-20.928C332.455,289.122,349.032,292,366,292
	c24.009,0,46.681-5.828,66.681-16.139c3.531,12.324,5.319,25.092,5.319,38.077c0,47.152-23.706,90.563-63.413,116.125
	c-2.859,1.841-4.587,5.008-4.587,8.408V486c0,3.309-2.691,6-6,6h-48c-3.309,0-6-2.691-6-6v-19.697
	c0-7.921-6.443-14.365-14.364-14.365H192.364c-7.921,0-14.364,6.444-14.364,14.365V486c0,3.309-2.691,6-6,6h-48
	c-3.309,0-6-2.691-6-6v-47.529c0-3.4-1.728-6.568-4.587-8.408c-28.614-18.42-49.354-46.546-58.401-79.199
	c-1.335-4.821-6.022-7.913-10.984-7.239c-0.504,0.069-0.995,0.174-1.471,0.313H22.969c-1.637,0-2.969-1.332-2.969-2.969v-54.063
	c0-1.637,1.332-2.969,2.969-2.969h19.715c0.436,0.121,0.884,0.215,1.343,0.277c4.967,0.67,9.648-2.418,10.985-7.237
	c16.495-59.491,71.183-101.04,132.988-101.04h3c5.522,0,10-4.478,10-10s-4.478-10-10-10h-3c-13.483,0-26.668,1.734-39.313,5.001
	c-5.772-26.978-29.787-47.272-58.463-47.272h-3.803c-5.522,0-10,4.478-10,10v78.507c-17.099,17.018-30.419,38.013-38.335,61.764
	H22.969C10.304,263.938,0,274.241,0,286.906v54.063c0,12.665,10.304,22.969,22.969,22.969h15.127
	C48.871,396.293,69.842,424.279,98,443.813V486c0,14.337,11.663,26,26,26h48c14.337,0,26-11.663,26-26v-14.063h92V486
	c0,14.337,11.663,26,26,26h48c14.337,0,26-11.663,26-26v-42.186c34.869-24.173,58.14-60.73,65.495-101.733
	c5.464,2.531,11.375,3.796,17.286,3.796c10.509,0,21.019-4,29.019-12.001c13.579-13.58,13.579-35.677,0-49.257
	C496.158,278.979,488.658,275.873,480.682,275.873z M129.518,167.224c-11.749,4.705-22.857,10.789-33.097,18.078v-51.154
	C113.395,136.815,126.834,150.255,129.518,167.224z"/>
<path d="M458.59,60.54c2.153,2.266,4.773,3.236,7.305,3.236c2.604,0,5.114-1.028,6.921-2.732c3.563-3.361,4.658-9.604,0.324-14.23
	c-4.333-4.628-10.634-3.941-14.222-0.607c-3.587,3.336-4.728,9.569-0.427,14.229C458.523,60.47,458.557,60.505,458.59,60.54z"/>
<path d="M366.194,111.938c7.911,0,14.348,5.427,14.348,12.097c0,5.522,4.478,10,10,10s10-4.478,10-10
	c0-14.449-10.271-26.694-24.348-30.705v-0.583c0-5.522-4.478-10-10-10s-10,4.478-10,10v0.583
	c-14.076,4.011-24.347,16.257-24.347,30.705c0,17.697,15.408,32.096,34.347,32.096c7.911,0,14.348,5.427,14.348,12.097
	s-6.437,12.097-14.348,12.097s-14.347-5.427-14.347-12.097c0-5.522-4.478-10-10-10s-10,4.478-10,10
	c0,14.448,10.271,26.694,24.347,30.705v0.322c0,5.522,4.478,10,10,10s10-4.478,10-10v-0.322
	c14.076-4.011,24.348-16.256,24.348-30.705c0-17.698-15.408-32.097-34.348-32.097c-7.911,0-14.347-5.426-14.347-12.096
	S358.283,111.938,366.194,111.938z"/>
<path d="M366.194,42.041c-57.322,0-103.958,46.636-103.958,103.959s46.636,103.959,103.958,103.959
	c57.323,0,103.959-46.636,103.959-103.959S423.518,42.041,366.194,42.041z M366.194,229.959c-46.295,0-83.958-37.664-83.958-83.959
	s37.663-83.959,83.958-83.959S450.153,99.705,450.153,146S412.489,229.959,366.194,229.959z"/>
<path d="M336.99,418.303c1.214,0,2.45-0.224,3.649-0.693c27.509-10.792,49.986-32.559,61.669-59.719
	c2.182-5.073-0.162-10.955-5.235-13.138c-5.074-2.181-10.955,0.162-13.138,5.235c-9.586,22.287-28.029,40.147-50.601,49.002
	c-5.141,2.018-7.674,7.82-5.657,12.962C329.225,415.895,332.996,418.303,336.99,418.303z"/>
<path d="M300.313,425.262c5.522,0,10-4.478,10-10s-4.478-10-10-10L300,405.263c-5.522,0-10,4.478-10,10s4.478,10,10,10
	L300.313,425.262z"/>
<g>
</g>
<g>
</g>
<g>
</g>
<g>
</g>
<g>
</g>
<g>
</g>
<g>
</g>
<g>
</g>
<g>
</g>
<g>
</g>
<g>
</g>
<g>
</g>
<g>
</g>
<g>
</g>
<g>
</g>
</svg>
