<svg id="Layer_1" data-name="Layer 1" xmlns="http://www.w3.org/2000/svg" viewBox="0 0 482.05 388.87"><defs><style>.cls-1{fill:#0635c9;}.cls-2{fill:#1ae5be;}</style></defs><path class="cls-1" d="M101.12,348.5a6,6,0,0,0,3.6-10.8l-2.62-2-.08-.06a6,6,0,1,0-7.11,9.67l2.62,2a6,6,0,0,0,3.59,1.2Z" transform="translate(-15 -61.57)"/><path class="cls-1" d="M146.54,90.94a6,6,0,0,0-.87-8.44L121.53,62.9A6,6,0,0,0,114,72.21l24.13,19.6a6,6,0,0,0,8.44-.87Z" transform="translate(-15 -61.57)"/><path class="cls-1" d="M223.69,153.59a6,6,0,0,0-.88-8.44l-43.88-35.64,0,0a6,6,0,0,0-7.54,9.34l43.88,35.64a6,6,0,0,0,8.45-.88Z" transform="translate(-15 -61.57)"/><path class="cls-1" d="M288.82,212.49a6,6,0,0,0,3.79-10.65l-31.75-25.79a6,6,0,0,0-7.57,9.32l31.76,25.78a5.89,5.89,0,0,0,3.77,1.34Z" transform="translate(-15 -61.57)"/><path class="cls-1" d="M23,172.15a6,6,0,0,0,.72,8.45L45.59,199a6,6,0,0,0,7.72-9.18l-21.86-18.4a6,6,0,0,0-8.45.73Z" transform="translate(-15 -61.57)"/><path class="cls-1" d="M167,293.28a6,6,0,0,0-.73-8.46L91.86,222.25a6,6,0,1,0-7.73,9.18L158.49,294a6,6,0,0,0,8.46-.73Z" transform="translate(-15 -61.57)"/><path class="cls-1" d="M199.54,312.86h0a6,6,0,0,0-7.72,9.19l12.26,10.32a6,6,0,0,0,7.72-9.19l-12.26-10.32Z" transform="translate(-15 -61.57)"/><path class="cls-1" d="M115.52,161.26a6,6,0,0,0-1-8.42L24.76,82.44l-.11-.09a6,6,0,0,0-7.3,9.53l89.75,70.4a6,6,0,0,0,8.42-1Z" transform="translate(-15 -61.57)"/><path class="cls-1" d="M162.35,204a6,6,0,0,0,3.7-10.72l-14-11a6,6,0,1,0-7.41,9.44l14,11a6,6,0,0,0,3.7,1.28Z" transform="translate(-15 -61.57)"/><path class="cls-1" d="M204.24,223.23h0a6,6,0,0,0-7.45,9.41l88.31,69.9h0a6,6,0,1,0,7.45-9.41l-88.31-69.9Z" transform="translate(-15 -61.57)"/><path class="cls-1" d="M497.05,239.65h0a12.13,12.13,0,1,0-12.13,12.13A12.13,12.13,0,0,0,497.05,239.65Z" transform="translate(-15 -61.57)"/><path class="cls-1" d="M437,194.69h0a7.23,7.23,0,1,0-7.22,7.22A7.23,7.23,0,0,0,437,194.69Z" transform="translate(-15 -61.57)"/><path class="cls-1" d="M184.4,428.64h0a10.9,10.9,0,1,0,10.9,10.9A10.9,10.9,0,0,0,184.4,428.64Z" transform="translate(-15 -61.57)"/><path class="cls-1" d="M209.92,71.08h0a9.41,9.41,0,1,0-9.4,9.41A9.4,9.4,0,0,0,209.92,71.08Z" transform="translate(-15 -61.57)"/><path class="cls-1" d="M275.6,370.25a6,6,0,0,0-.31-6.33l-8.37-12.11,5.24-13.76a6,6,0,0,0-7.33-7.88l-14.1,4.21-11.47-9.23a6,6,0,0,0-9.76,4.53l-.35,14.72-12.32,8.06a6,6,0,0,0,1.29,10.68L232,368l3.86,14.21a6,6,0,0,0,10.56,2.07l8.93-11.7,14.7.73a6,6,0,0,0,5.54-3.08Zm-21-19.76a6,6,0,0,0,.67,5.55l3.25,4.7-5.71-.28h-.3a6,6,0,0,0-4.77,2.36l-3.47,4.55-1.5-5.52a6,6,0,0,0-3.8-4.09l-5.39-1.9,4.79-3.13a6,6,0,0,0,2.71-4.88l.14-5.72,4.45,3.59a6,6,0,0,0,5.48,1.07l5.48-1.63-2,5.34Z" transform="translate(-15 -61.57)"/><path class="cls-1" d="M349.45,246.3a6.08,6.08,0,0,0,3.7-1.05,6,6,0,0,0,1.53-8.35l-8.37-12.11L351.54,211a6,6,0,0,0-7.32-7.88l-14.1,4.21-11.47-9.23a6,6,0,0,0-9.76,4.54l-.35,14.71-12.32,8.06a6,6,0,0,0,1.29,10.68L311.4,241l3.86,14.2a6,6,0,0,0,10.56,2.07l8.93-11.7,14.7.73ZM334,223.47a6,6,0,0,0,.68,5.55l3.25,4.7-5.71-.28h-.3a6,6,0,0,0-4.77,2.36l-3.47,4.55-1.5-5.52a6,6,0,0,0-3.8-4.09l-5.4-1.9,4.79-3.13a6,6,0,0,0,2.71-4.88l.14-5.72,4.45,3.59a6,6,0,0,0,5.49,1.07l5.47-1.64-2,5.35Z" transform="translate(-15 -61.57)"/><path class="cls-2" d="M435.9,312.68a6,6,0,0,0-6.24-8.77l-47.4,7.64L349.1,276.82A6,6,0,0,0,338.84,280l-7.39,47.44-43.28,20.81a6,6,0,0,0-.11,10.76l42.84,21.69,6.42,47.59a6,6,0,0,0,10.2,3.43l33.86-34,47.24,8.6a6,6,0,0,0,3.81-.57,6,6,0,0,0,2.6-8.07L413.13,355Zm-16.33,5L401.07,352a6,6,0,0,0-.06,5.59l17.8,34.71-38.38-7a6.38,6.38,0,0,0-1.08-.1A6,6,0,0,0,375.1,387l-27.51,27.66L342.37,376a6,6,0,0,0-3.23-4.56l-34.8-17.62,35.15-16.9a6,6,0,0,0,3.33-4.48l6-38.55,26.94,28.21a6,6,0,0,0,5.29,1.78Z" transform="translate(-15 -61.57)"/></svg>