<svg id="Capa_1" enable-background="new 0 0 512 512" height="512" viewBox="0 0 512 512" width="512" xmlns="http://www.w3.org/2000/svg"><g><g><path d="m502 256c0 135.96-110.02 246-246 246-135.96 0-246-110.02-246-246 0-135.96 110.02-246 246-246 135.96 0 246 110.02 246 246z" fill="#ffda8f"/><path d="m445.83 176h-379.66c-10.41 24.61-16.17 51.64-16.17 80 0 113.793 92.6 206 206 206 113.378 0 206-92.172 206-206 0-28.36-5.76-55.39-16.17-80z" fill="#eefaff"/><path d="m376 423.35c-18.04 12.98-38.26 23.11-59.98 29.73l-.02-.08v-117h60z" fill="#ff7b79"/><path d="m445.83 176h-379.66c31.29-73.97 104.6-126 189.83-126s158.54 52.03 189.83 126z" fill="#9bc5ff"/><g fill="#ff7b79"><path d="m256 336v126c-20.86 0-41.01-3.12-60-8.91v-117.09z"/><path d="m136 336v87.35c-30.61-22.01-54.96-52.2-69.83-87.35z"/></g></g><g><circle cx="316" cy="116" r="10"/><circle cx="256" cy="116" r="10"/><circle cx="196" cy="116" r="10"/><path d="m376 306h40c5.523 0 10-4.477 10-10s-4.477-10-10-10h-30v-20h30c5.523 0 10-4.477 10-10s-4.477-10-10-10h-30v-20h30c5.523 0 10-4.477 10-10s-4.477-10-10-10h-40c-5.523 0-10 4.477-10 10v80c0 5.523 4.477 10 10 10z"/><path d="m286 216c0 5.523 4.477 10 10 10h10v70c0 5.523 4.477 10 10 10s10-4.477 10-10v-70h10c5.523 0 10-4.477 10-10s-4.477-10-10-10h-40c-5.523 0-10 4.477-10 10z"/><path d="m226 206c-22.056 0-40 17.944-40 40v20c0 22.056 17.944 40 40 40s40-17.944 40-40v-20c0-22.056-17.944-40-40-40zm20 60c0 11.028-8.972 20-20 20s-20-8.972-20-20v-20c0-11.028 8.972-20 20-20s20 8.972 20 20z"/><path d="m159.426 206.605c-5.188-1.891-10.929.781-12.821 5.969l-20.034 54.945-21.24-55.115c-1.986-5.153-7.773-7.72-12.927-5.735-5.153 1.986-7.721 7.773-5.735 12.927l30.83 80c1.488 3.861 5.199 6.404 9.331 6.404h.091c4.168-.038 7.876-2.658 9.304-6.574l29.17-80c1.892-5.189-.781-10.929-5.969-12.821z"/><path d="m256 0c-141.582 0-256 114.384-256 256 0 141.582 114.384 256 256 256 141.582 0 256-114.384 256-256 0-141.582-114.384-256-256-256zm0 492c-130.131 0-236-105.869-236-236s105.869-236 236-236 236 105.869 236 236-105.869 236-236 236z"/><path d="m256 40c-118.606 0-216 96.325-216 216 0 118.743 96.509 216 216 216 118.138 0 216-95.889 216-216 0-118.878-96.625-216-216-216zm-130 362.564c-18.046-16.014-32.97-35.188-44.062-56.564h44.062zm60 36.505c-14.068-5.391-27.464-12.398-40-20.934v-72.135h40zm60 12.673c-13.551-.686-26.946-2.76-40-6.206v-99.536h40zm60-6.207c-13.051 3.447-26.445 5.521-40 6.207v-105.742h40zm60-27.399c-12.531 8.536-25.926 15.546-40 20.938v-93.074h40zm20-15.571v-56.575h44.068c-11.098 21.387-26.023 40.561-44.068 56.575zm-85-216.565h138.068c8.576 22.325 12.932 45.838 12.932 70 0 24.156-4.355 47.671-12.924 70h-366.144c-8.576-22.325-12.932-45.838-12.932-70s4.356-47.675 12.932-70h138.068c5.523 0 10-4.477 10-10s-4.477-10-10-10h-129.094c33.558-64.866 100.321-106 174.094-106s140.536 41.134 174.094 106h-129.094c-5.523 0-10 4.477-10 10s4.477 10 10 10z"/><circle cx="256" cy="176" r="10"/></g></g></svg>